<svg version="1.1" id="Layer_1" xmlns="http://www.w3.org/2000/svg" xmlns:xlink="http://www.w3.org/1999/xlink" x="0" y="0" viewBox="0 0 72 72" xml:space="preserve" enable-background="new 0 0 72 72"><style type="text/css">.st0{fill:#979b93}.st1{fill:#47b649}</style><g><path class="st0" d="M48,25.9c0.3-0.4,0.4-1,0-1.4l-3.9-4.6c-0.2-0.2-0.4-0.3-0.6-0.3c-0.2,0-0.5,0.1-0.6,0.3l-13,15.3l5.2,6 L48,25.9z M10.1,35.4C10,35.2,9.7,35,9.5,35s-0.5,0.1-0.6,0.3L5,39.9c-0.4,0.4-0.4,1.1,0,1.5l12.4,14.4c0.8,0.9,1.8,1.5,2.6,1.5 c1.2,0,2.2-1,2.6-1.4l0,0l2.6-3.1L10.1,35.4L10.1,35.4z"/><path class="st1" d="M67.1,19.7l-3.9-4.6c-0.2-0.2-0.4-0.3-0.6-0.3s-0.5,0.1-0.6,0.3L35,46.6l-9.8-11.4c-0.2-0.2-0.4-0.3-0.6-0.3 s-0.5,0.1-0.6,0.3L20,39.8c-0.4,0.4-0.4,1.1,0,1.5l12.4,14.4c0.8,0.9,1.8,1.5,2.6,1.5c1.2,0,2.2-1,2.6-1.4l0,0l29.5-34.5 C67.4,20.8,67.4,20.1,67.1,19.7L67.1,19.7z"/></g></svg>